<ttFont>
<head>
    <!-- Most of this table will be recalculated by the compiler -->
    <tableVersion value="1.0"/>
    <fontRevision value="1.0"/>
    <checkSumAdjustment value="0xd9fb856e"/>
    <magicNumber value="0x5f0f3cf5"/>
    <flags value="00000000 00000001"/>
    <unitsPerEm value="600"/>
    <created value="Tue Sep 20 13:00:10 2022"/>
    <modified value="Tue Sep 20 13:00:10 2022"/>
    <xMin value="-171"/>
    <yMin value="-244"/>
    <xMax value="174"/>
    <yMax value="206"/>
    <macStyle value="00000000 00000000"/>
    <lowestRecPPEM value="10"/>
    <fontDirectionHint value="2"/>
    <indexToLocFormat value="0"/>
    <glyphDataFormat value="0"/>
  </head>
    <TTGlyph name="glyph0001" xMin="-171" yMin="-244" xMax="174" yMax="206">
      <contour>
        <pt x="-61" y="-236" on="1"/>
        <pt x="-61" y="-244" on="0"/>
        <pt x="-53" y="-244" on="1"/>
        <pt x="-49" y="-244" on="0"/>
        <pt x="-47" y="-241" on="1"/>
        <pt x="-34" y="-227" on="0"/>
        <pt x="4" y="-176" on="0"/>
        <pt x="18" y="-141" on="1"/>
        <pt x="32" y="-107" on="0"/>
        <pt x="40" y="-77" on="0"/>
        <pt x="52" y="-70" on="1"/>
        <pt x="67" y="-61" on="0"/>
        <pt x="90" y="-80" on="0"/>
        <pt x="96" y="-89" on="1"/>
        <pt x="98" y="-93" on="0"/>
        <pt x="107" y="-93" on="0"/>
        <pt x="109" y="-90" on="1"/>
        <pt x="120" y="-77" on="0"/>
        <pt x="154" y="-18" on="0"/>
        <pt x="174" y="62" on="0"/>
        <pt x="161" y="106" on="1"/>
        <pt x="154" y="131" on="0"/>
        <pt x="123" y="168" on="0"/>
        <pt x="81" y="193" on="0"/>
        <pt x="31" y="206" on="0"/>
        <pt x="4" y="206" on="1"/>
        <pt x="-24" y="206" on="0"/>
        <pt x="-80" y="191" on="0"/>
        <pt x="-127" y="161" on="0"/>
        <pt x="-159" y="114" on="0"/>
        <pt x="-165" y="83" on="1"/>
        <pt x="-171" y="46" on="0"/>
        <pt x="-156" y="-7" on="0"/>
        <pt x="-125" y="-54" on="0"/>
        <pt x="-90" y="-107" on="0"/>
        <pt x="-64" y="-181" on="0"/>
      </contour>
    </TTGlyph>
    <TTGlyph name="glyph0002" xMin="48" yMin="48" xMax="103" yMax="59">
      <contour>
        <pt x="103" y="48" on="1"/>
        <pt x="48" y="48" on="1"/>
        <pt x="59" y="59" on="0"/>
        <pt x="91" y="58" on="0"/>
      </contour>
    </TTGlyph>
    <TTGlyph name="glyph0003" xMin="-15" yMin="-15" xMax="15" yMax="15">
      <contour>
        <pt x="0" y="-15" on="1"/>
        <pt x="-6" y="-15" on="0"/>
        <pt x="-15" y="-6" on="0"/>
        <pt x="-15" y="0" on="1"/>
        <pt x="-15" y="15" on="0"/>
        <pt x="0" y="15" on="1"/>
        <pt x="15" y="15" on="0"/>
        <pt x="15" y="0" on="1"/>
        <pt x="15" y="-6" on="0"/>
        <pt x="6" y="-15" on="0"/>
      </contour>
    </TTGlyph>
    <TTGlyph name="glyph0004" xMin="-53" yMin="-53" xMax="53" yMax="53">
      <contour>
        <pt x="53" y="0" on="1"/>
        <pt x="53" y="-22" on="0"/>
        <pt x="22" y="-53" on="0"/>
        <pt x="0" y="-53" on="1"/>
        <pt x="-22" y="-53" on="0"/>
        <pt x="-53" y="-22" on="0"/>
        <pt x="-53" y="0" on="1"/>
        <pt x="-53" y="22" on="0"/>
        <pt x="-22" y="53" on="0"/>
        <pt x="0" y="53" on="1"/>
        <pt x="22" y="53" on="0"/>
        <pt x="53" y="22" on="0"/>
      </contour>
    </TTGlyph>
    <TTGlyph name="glyph0005" xMin="-41" yMin="-41" xMax="41" yMax="41">
      <contour>
        <pt x="41" y="0" on="1"/>
        <pt x="41" y="-17" on="0"/>
        <pt x="17" y="-41" on="0"/>
        <pt x="0" y="-41" on="1"/>
        <pt x="-17" y="-41" on="0"/>
        <pt x="-41" y="-17" on="0"/>
        <pt x="-41" y="0" on="1"/>
        <pt x="-41" y="17" on="0"/>
        <pt x="-17" y="41" on="0"/>
        <pt x="0" y="41" on="1"/>
        <pt x="17" y="41" on="0"/>
        <pt x="41" y="17" on="0"/>
      </contour>
    </TTGlyph>
    <TTGlyph name="glyph0006" xMin="-15" yMin="-15" xMax="15" yMax="15">
      <contour>
        <pt x="15" y="0" on="1"/>
        <pt x="15" y="-15" on="0"/>
        <pt x="0" y="-15" on="1"/>
        <pt x="-15" y="-15" on="0"/>
        <pt x="-15" y="0" on="1"/>
        <pt x="-15" y="15" on="0"/>
        <pt x="0" y="15" on="1"/>
        <pt x="15" y="15" on="0"/>
      </contour>
    </TTGlyph>
    <TTGlyph name="glyph0007" xMin="-8" yMin="-8" xMax="8" yMax="8">
      <contour>
        <pt x="8" y="0" on="1"/>
        <pt x="8" y="-8" on="0"/>
        <pt x="0" y="-8" on="1"/>
        <pt x="-8" y="-8" on="0"/>
        <pt x="-8" y="0" on="1"/>
        <pt x="-8" y="8" on="0"/>
        <pt x="0" y="8" on="1"/>
        <pt x="8" y="8" on="0"/>
      </contour>
    </TTGlyph>
    <TTGlyph name="glyph0008" xMin="-9" yMin="-9" xMax="9" yMax="9">
      <contour>
        <pt x="-9" y="0" on="1"/>
        <pt x="-9" y="-9" on="0"/>
        <pt x="0" y="-9" on="1"/>
        <pt x="9" y="-9" on="0"/>
        <pt x="9" y="0" on="1"/>
        <pt x="9" y="9" on="0"/>
        <pt x="0" y="9" on="1"/>
        <pt x="-9" y="9" on="0"/>
      </contour>
    </TTGlyph>
    <TTGlyph name="glyph0009" xMin="-9" yMin="-9" xMax="9" yMax="9">
      <contour>
        <pt x="-9" y="0" on="1"/>
        <pt x="-9" y="-9" on="0"/>
        <pt x="0" y="-9" on="1"/>
        <pt x="9" y="-9" on="0"/>
        <pt x="9" y="0" on="1"/>
        <pt x="9" y="9" on="0"/>
        <pt x="0" y="9" on="1"/>
        <pt x="-9" y="9" on="0"/>
      </contour>
    </TTGlyph>
    <TTGlyph name="glyph0010" xMin="-15" yMin="-29" xMax="17" yMax="30">
      <contour>
        <pt x="6" y="-29" on="1"/>
        <pt x="6" y="-29" on="0"/>
        <pt x="6" y="-29" on="0"/>
        <pt x="6" y="-29" on="1"/>
        <pt x="10" y="-29" on="0"/>
        <pt x="17" y="-4" on="0"/>
        <pt x="17" y="5" on="1"/>
        <pt x="17" y="30" on="0"/>
        <pt x="1" y="29" on="1"/>
        <pt x="-6" y="29" on="0"/>
        <pt x="-15" y="17" on="0"/>
        <pt x="-12" y="5" on="1"/>
        <pt x="-10" y="-3" on="0"/>
        <pt x="1" y="-17" on="0"/>
        <pt x="2" y="-23" on="1"/>
        <pt x="4" y="-29" on="0"/>
      </contour>
    </TTGlyph>
    <TTGlyph name="glyph0011" xMin="-15" yMin="-29" xMax="17" yMax="30">
      <contour>
        <pt x="6" y="-29" on="1"/>
        <pt x="6" y="-29" on="0"/>
        <pt x="6" y="-29" on="0"/>
        <pt x="6" y="-29" on="1"/>
        <pt x="10" y="-29" on="0"/>
        <pt x="17" y="-4" on="0"/>
        <pt x="17" y="5" on="1"/>
        <pt x="17" y="30" on="0"/>
        <pt x="1" y="29" on="1"/>
        <pt x="-6" y="29" on="0"/>
        <pt x="-15" y="17" on="0"/>
        <pt x="-12" y="5" on="1"/>
        <pt x="-10" y="-3" on="0"/>
        <pt x="1" y="-17" on="0"/>
        <pt x="2" y="-23" on="1"/>
        <pt x="4" y="-29" on="0"/>
      </contour>
    </TTGlyph>
    <TTGlyph name="glyph0012" xMin="-15" yMin="-29" xMax="17" yMax="30">
      <contour>
        <pt x="6" y="-29" on="1"/>
        <pt x="6" y="-29" on="0"/>
        <pt x="6" y="-29" on="0"/>
        <pt x="6" y="-29" on="1"/>
        <pt x="10" y="-29" on="0"/>
        <pt x="17" y="-4" on="0"/>
        <pt x="17" y="5" on="1"/>
        <pt x="17" y="30" on="0"/>
        <pt x="1" y="29" on="1"/>
        <pt x="-6" y="29" on="0"/>
        <pt x="-15" y="17" on="0"/>
        <pt x="-12" y="5" on="1"/>
        <pt x="-10" y="-3" on="0"/>
        <pt x="1" y="-17" on="0"/>
        <pt x="2" y="-23" on="1"/>
        <pt x="4" y="-29" on="0"/>
      </contour>
    </TTGlyph>
    <TTGlyph name="glyph0013" xMin="-9" yMin="-9" xMax="9" yMax="9">
      <contour>
        <pt x="-9" y="0" on="1"/>
        <pt x="-9" y="-9" on="0"/>
        <pt x="0" y="-9" on="1"/>
        <pt x="9" y="-9" on="0"/>
        <pt x="9" y="0" on="1"/>
        <pt x="9" y="9" on="0"/>
        <pt x="0" y="9" on="1"/>
        <pt x="-9" y="9" on="0"/>
      </contour>
    </TTGlyph>
    <TTGlyph name="glyph0014" xMin="-9" yMin="-9" xMax="9" yMax="9">
      <contour>
        <pt x="-9" y="0" on="1"/>
        <pt x="-9" y="-9" on="0"/>
        <pt x="0" y="-9" on="1"/>
        <pt x="9" y="-9" on="0"/>
        <pt x="9" y="0" on="1"/>
        <pt x="9" y="9" on="0"/>
        <pt x="0" y="9" on="1"/>
        <pt x="-9" y="9" on="0"/>
      </contour>
    </TTGlyph>
    <TTGlyph name="glyph0015" xMin="-15" yMin="-29" xMax="17" yMax="30">
      <contour>
        <pt x="6" y="-29" on="1"/>
        <pt x="6" y="-29" on="0"/>
        <pt x="6" y="-29" on="0"/>
        <pt x="6" y="-29" on="1"/>
        <pt x="10" y="-29" on="0"/>
        <pt x="17" y="-4" on="0"/>
        <pt x="17" y="5" on="1"/>
        <pt x="17" y="30" on="0"/>
        <pt x="1" y="29" on="1"/>
        <pt x="-6" y="29" on="0"/>
        <pt x="-15" y="17" on="0"/>
        <pt x="-12" y="5" on="1"/>
        <pt x="-10" y="-3" on="0"/>
        <pt x="1" y="-17" on="0"/>
        <pt x="2" y="-23" on="1"/>
        <pt x="4" y="-29" on="0"/>
      </contour>
    </TTGlyph>
    <TTGlyph name="glyph0016" xMin="-15" yMin="-29" xMax="17" yMax="30">
      <contour>
        <pt x="6" y="-29" on="1"/>
        <pt x="6" y="-29" on="0"/>
        <pt x="6" y="-29" on="0"/>
        <pt x="6" y="-29" on="1"/>
        <pt x="10" y="-29" on="0"/>
        <pt x="17" y="-4" on="0"/>
        <pt x="17" y="5" on="1"/>
        <pt x="17" y="30" on="0"/>
        <pt x="1" y="29" on="1"/>
        <pt x="-6" y="29" on="0"/>
        <pt x="-15" y="17" on="0"/>
        <pt x="-12" y="5" on="1"/>
        <pt x="-10" y="-3" on="0"/>
        <pt x="1" y="-17" on="0"/>
        <pt x="2" y="-23" on="1"/>
        <pt x="4" y="-29" on="0"/>
      </contour>
    </TTGlyph>
    <TTGlyph name="glyph0017" xMin="-9" yMin="-9" xMax="9" yMax="9">
      <contour>
        <pt x="-9" y="0" on="1"/>
        <pt x="-9" y="-9" on="0"/>
        <pt x="0" y="-9" on="1"/>
        <pt x="9" y="-9" on="0"/>
        <pt x="9" y="0" on="1"/>
        <pt x="9" y="9" on="0"/>
        <pt x="0" y="9" on="1"/>
        <pt x="-9" y="9" on="0"/>
      </contour>
    </TTGlyph>
    <TTGlyph name="glyph0018" xMin="-9" yMin="-9" xMax="9" yMax="9">
      <contour>
        <pt x="-9" y="0" on="1"/>
        <pt x="-9" y="-9" on="0"/>
        <pt x="0" y="-9" on="1"/>
        <pt x="9" y="-9" on="0"/>
        <pt x="9" y="0" on="1"/>
        <pt x="9" y="9" on="0"/>
        <pt x="0" y="9" on="1"/>
        <pt x="-9" y="9" on="0"/>
      </contour>
    </TTGlyph>
    <TTGlyph name="glyph0019" xMin="-9" yMin="-9" xMax="9" yMax="9">
      <contour>
        <pt x="-9" y="0" on="1"/>
        <pt x="-9" y="-9" on="0"/>
        <pt x="0" y="-9" on="1"/>
        <pt x="9" y="-9" on="0"/>
        <pt x="9" y="0" on="1"/>
        <pt x="9" y="9" on="0"/>
        <pt x="0" y="9" on="1"/>
        <pt x="-9" y="9" on="0"/>
      </contour>
    </TTGlyph>
    <TTGlyph name="glyph0020" xMin="-15" yMin="-29" xMax="17" yMax="30">
      <contour>
        <pt x="6" y="-29" on="1"/>
        <pt x="6" y="-29" on="0"/>
        <pt x="6" y="-29" on="0"/>
        <pt x="6" y="-29" on="1"/>
        <pt x="10" y="-29" on="0"/>
        <pt x="17" y="-4" on="0"/>
        <pt x="17" y="5" on="1"/>
        <pt x="17" y="30" on="0"/>
        <pt x="1" y="29" on="1"/>
        <pt x="-6" y="29" on="0"/>
        <pt x="-15" y="17" on="0"/>
        <pt x="-12" y="5" on="1"/>
        <pt x="-10" y="-3" on="0"/>
        <pt x="1" y="-17" on="0"/>
        <pt x="2" y="-23" on="1"/>
        <pt x="4" y="-29" on="0"/>
      </contour>
    </TTGlyph>
    <TTGlyph name="glyph0021" xMin="-15" yMin="-29" xMax="17" yMax="30">
      <contour>
        <pt x="6" y="-29" on="1"/>
        <pt x="6" y="-29" on="0"/>
        <pt x="6" y="-29" on="0"/>
        <pt x="6" y="-29" on="1"/>
        <pt x="10" y="-29" on="0"/>
        <pt x="17" y="-4" on="0"/>
        <pt x="17" y="5" on="1"/>
        <pt x="17" y="30" on="0"/>
        <pt x="1" y="29" on="1"/>
        <pt x="-6" y="29" on="0"/>
        <pt x="-15" y="17" on="0"/>
        <pt x="-12" y="5" on="1"/>
        <pt x="-10" y="-3" on="0"/>
        <pt x="1" y="-17" on="0"/>
        <pt x="2" y="-23" on="1"/>
        <pt x="4" y="-29" on="0"/>
      </contour>
    </TTGlyph>
    <TTGlyph name="glyph0022" xMin="-53" yMin="-53" xMax="53" yMax="53">
      <contour>
        <pt x="53" y="0" on="1"/>
        <pt x="53" y="-22" on="0"/>
        <pt x="22" y="-53" on="0"/>
        <pt x="0" y="-53" on="1"/>
        <pt x="-22" y="-53" on="0"/>
        <pt x="-53" y="-22" on="0"/>
        <pt x="-53" y="0" on="1"/>
        <pt x="-53" y="22" on="0"/>
        <pt x="-22" y="53" on="0"/>
        <pt x="0" y="53" on="1"/>
        <pt x="22" y="53" on="0"/>
        <pt x="53" y="22" on="0"/>
      </contour>
    </TTGlyph>
    <TTGlyph name="glyph0023" xMin="-41" yMin="-41" xMax="41" yMax="41">
      <contour>
        <pt x="41" y="0" on="1"/>
        <pt x="41" y="-17" on="0"/>
        <pt x="17" y="-41" on="0"/>
        <pt x="0" y="-41" on="1"/>
        <pt x="-17" y="-41" on="0"/>
        <pt x="-41" y="-17" on="0"/>
        <pt x="-41" y="0" on="1"/>
        <pt x="-41" y="17" on="0"/>
        <pt x="-17" y="41" on="0"/>
        <pt x="0" y="41" on="1"/>
        <pt x="17" y="41" on="0"/>
        <pt x="41" y="17" on="0"/>
      </contour>
    </TTGlyph>
    <TTGlyph name="glyph0024" xMin="-15" yMin="-15" xMax="15" yMax="15">
      <contour>
        <pt x="15" y="0" on="1"/>
        <pt x="15" y="-15" on="0"/>
        <pt x="0" y="-15" on="1"/>
        <pt x="-15" y="-15" on="0"/>
        <pt x="-15" y="0" on="1"/>
        <pt x="-15" y="15" on="0"/>
        <pt x="0" y="15" on="1"/>
        <pt x="15" y="15" on="0"/>
      </contour>
    </TTGlyph>
    <TTGlyph name="glyph0025" xMin="-8" yMin="-8" xMax="8" yMax="8">
      <contour>
        <pt x="8" y="0" on="1"/>
        <pt x="8" y="-8" on="0"/>
        <pt x="0" y="-8" on="1"/>
        <pt x="-8" y="-8" on="0"/>
        <pt x="-8" y="0" on="1"/>
        <pt x="-8" y="8" on="0"/>
        <pt x="0" y="8" on="1"/>
        <pt x="8" y="8" on="0"/>
      </contour>
    </TTGlyph>
</ttFont>
